<?xml version="1.0" standalone="no"?>
<!DOCTYPE svg PUBLIC "-//W3C//DTD SVG 20010904//EN"
 "http://www.w3.org/TR/2001/REC-SVG-20010904/DTD/svg10.dtd">
<svg version="1.0" xmlns="http://www.w3.org/2000/svg"
 width="400.000000pt" height="400.000000pt" viewBox="0 0 400.000000 400.000000"
 preserveAspectRatio="xMidYMid meet">
<metadata>
Created by potrace 1.11, written by Peter Selinger 2001-2013
</metadata>
<g transform="translate(0.000000,400.000000) scale(0.100000,-0.100000)"
fill="#000000" stroke="none">
<path d="M3182 3388 c0 -106 -1 -205 -1 -219 l-1 -27 -217 -5 c-174 -4 -234
-9 -298 -25 -405 -103 -675 -322 -1119 -907 -374 -492 -522 -645 -719 -739
-120 -58 -182 -68 -447 -71 -129 -1 -238 -3 -243 -4 -4 0 -6 -119 -5 -263 l3
-263 265 1 c230 1 279 4 369 23 314 66 584 245 867 574 51 60 182 224 290 366
307 399 440 544 594 646 156 103 272 135 503 135 l157 0 1 -27 c0 -16 1 -100
1 -188 0 -88 2 -163 4 -166 3 -6 408 398 593 591 l91 95 -336 333 c-184 182
-339 332 -344 332 -4 0 -8 -87 -8 -192z"/>
<path d="M138 3135 c-5 -5 -8 -124 -8 -265 l0 -257 248 -6 c168 -4 269 -11
317 -21 127 -29 269 -109 391 -219 l61 -56 104 137 c57 75 130 169 162 208 31
40 57 74 57 77 0 10 -156 135 -230 184 -144 97 -287 157 -458 193 -79 17 -147
22 -367 27 -148 3 -273 2 -277 -2z"/>
<path d="M3186 1771 c-2 -3 -4 -80 -4 -171 0 -91 -1 -176 -1 -189 l-1 -23
-177 5 c-200 5 -252 16 -378 76 -89 43 -170 100 -261 184 -34 31 -64 57 -66
57 -3 0 -40 -46 -83 -102 -44 -57 -117 -150 -164 -208 l-84 -104 59 -54 c111
-101 229 -183 359 -247 206 -102 359 -135 633 -135 122 0 162 -3 163 -12 0 -7
1 -106 1 -220 0 -115 3 -208 8 -208 4 0 159 150 344 332 l335 333 -105 110
c-209 218 -575 582 -578 576z"/>
</g>
</svg>
